<svg width="91" height="133" viewBox="0 0 91 133" fill="none" xmlns="http://www.w3.org/2000/svg">
<path d="M21.2 50C21 48 20.8 46 20.8 44.2C20.8 29.4 28.8 17.6 45.8 17.6C62.2 17.6 70.2 28.6 70.2 40.4C70.2 50.4 64.6 59.6 52.4 67.4L30.8 81.4C8.8 95.6 0.4 111.8 2.98023e-08 133H90.8V114.8H24.2C26 106.8 32.6 101.4 40 96.6L65.6 80.2C80.4 70.8 90 57.2 90 40.2C90 18.6 74 0.399991 46.2 0.399991C17.8 0.399991 1.4 20.2 1.4 42.4C1.4 44 1.4 45.8 1.6 47.6L21.2 50Z" fill="#054C0F" fill-opacity="0.07"/>
</svg>
